<svg width="1100" height="1000" viewBox="0 0 1100 1000" fill="none" xmlns="http://www.w3.org/2000/svg">
<rect width="1100" height="1000" fill="white"/>
<rect width="100" height="100" fill="#33D9E6"/>
<rect x="100" width="100" height="100" fill="#2FD2DE"/>
<rect x="200" width="100" height="100" fill="#30CAD6"/>
<rect x="300" width="100" height="100" fill="#23C3CF"/>
<rect x="400" width="100" height="100" fill="#37C0C5"/>
<rect x="500" width="100" height="100" fill="#4FBDB9"/>
<rect x="600" width="100" height="100" fill="#61BBB0"/>
<rect x="700" width="100" height="100" fill="#70B9A9"/>
<rect x="800" width="100" height="100" fill="#91B499"/>
<rect x="900" width="100" height="100" fill="#BCAE84"/>
<rect x="1000" width="100" height="100" fill="#CAAC7E"/>
<rect y="100" width="100" height="100" fill="#2FD2DE"/>
<rect x="100" y="100" width="100" height="100" fill="#30CAD6"/>
<rect x="200" y="100" width="100" height="100" fill="#23C3CF"/>
<rect x="300" y="100" width="100" height="100" fill="#37C0C5"/>
<rect x="400" y="100" width="100" height="100" fill="#4FBDB9"/>
<rect x="500" y="100" width="100" height="100" fill="#61BBB0"/>
<rect x="600" y="100" width="100" height="100" fill="#70B9A9"/>
<rect x="700" y="100" width="100" height="100" fill="#91B499"/>
<rect x="800" y="100" width="100" height="100" fill="#BCAE84"/>
<rect x="900" y="100" width="100" height="100" fill="#CAAC7E"/>
<rect x="1000" y="100" width="100" height="100" fill="#DDA974"/>
<rect y="200" width="100" height="100" fill="#30CAD6"/>
<rect x="100" y="200" width="100" height="100" fill="#23C3CF"/>
<rect x="200" y="200" width="100" height="100" fill="#37C0C5"/>
<rect x="300" y="200" width="100" height="100" fill="#4FBDB9"/>
<rect x="400" y="200" width="100" height="100" fill="#61BBB0"/>
<rect x="500" y="200" width="100" height="100" fill="#70B9A9"/>
<rect x="600" y="200" width="100" height="100" fill="#91B499"/>
<rect x="700" y="200" width="100" height="100" fill="#BCAE84"/>
<rect x="800" y="200" width="100" height="100" fill="#CAAC7E"/>
<rect x="900" y="200" width="100" height="100" fill="#DDA974"/>
<rect x="1000" y="200" width="100" height="100" fill="#F2A66A"/>
<rect y="300" width="100" height="100" fill="#30CAD6"/>
<rect x="100" y="300" width="100" height="100" fill="#23C3CF"/>
<rect x="200" y="300" width="100" height="100" fill="#37C0C5"/>
<rect x="300" y="300" width="100" height="100" fill="#4FBDB9"/>
<rect x="400" y="300" width="100" height="100" fill="#61BBB0"/>
<rect x="500" y="300" width="100" height="100" fill="#70B9A9"/>
<rect x="600" y="300" width="100" height="100" fill="#91B499"/>
<rect x="700" y="300" width="100" height="100" fill="#BCAE84"/>
<rect x="800" y="300" width="100" height="100" fill="#CAAC7E"/>
<rect x="900" y="300" width="100" height="100" fill="#DDA974"/>
<rect x="1000" y="300" width="100" height="100" fill="#F2A66A"/>
<rect y="400" width="100" height="100" fill="#23C3CF"/>
<rect x="100" y="400" width="100" height="100" fill="#37C0C5"/>
<rect x="200" y="400" width="100" height="100" fill="#4FBDB9"/>
<rect x="300" y="400" width="100" height="100" fill="#61BBB0"/>
<rect x="400" y="400" width="100" height="100" fill="#70B9A9"/>
<rect x="500" y="400" width="100" height="100" fill="#91B499"/>
<rect x="600" y="400" width="100" height="100" fill="#BCAE84"/>
<rect x="700" y="400" width="100" height="100" fill="#CAAC7E"/>
<rect x="800" y="400" width="100" height="100" fill="#DDA974"/>
<rect x="900" y="400" width="100" height="100" fill="#F2A66A"/>
<rect x="1000" y="400" width="100" height="100" fill="#FFA464"/>
<rect y="500" width="100" height="100" fill="#23C3CF"/>
<rect x="100" y="500" width="100" height="100" fill="#37C0C5"/>
<rect x="200" y="500" width="100" height="100" fill="#4FBDB9"/>
<rect x="300" y="500" width="100" height="100" fill="#61BBB0"/>
<rect x="400" y="500" width="100" height="100" fill="#70B9A9"/>
<rect x="500" y="500" width="100" height="100" fill="#91B499"/>
<rect x="600" y="500" width="100" height="100" fill="#BCAE84"/>
<rect x="700" y="500" width="100" height="100" fill="#CAAC7E"/>
<rect x="800" y="500" width="100" height="100" fill="#DDA974"/>
<rect x="900" y="500" width="100" height="100" fill="#F2A66A"/>
<rect x="1000" y="500" width="100" height="100" fill="#FFA464"/>
<rect y="600" width="100" height="100" fill="#37C0C5"/>
<rect x="100" y="600" width="100" height="100" fill="#4FBDB9"/>
<rect x="200" y="600" width="100" height="100" fill="#61BBB0"/>
<rect x="300" y="600" width="100" height="100" fill="#70B9A9"/>
<rect x="400" y="600" width="100" height="100" fill="#91B499"/>
<rect x="500" y="600" width="100" height="100" fill="#BCAE84"/>
<rect x="600" y="600" width="100" height="100" fill="#CAAC7E"/>
<rect x="700" y="600" width="100" height="100" fill="#DDA974"/>
<rect x="800" y="600" width="100" height="100" fill="#F2A66A"/>
<rect x="900" y="600" width="100" height="100" fill="#FFA464"/>
<rect x="1000" y="600" width="100" height="100" fill="#FCA060"/>
<rect y="700" width="100" height="100" fill="#37C0C5"/>
<rect x="100" y="700" width="100" height="100" fill="#4FBDB9"/>
<rect x="200" y="700" width="100" height="100" fill="#61BBB0"/>
<rect x="300" y="700" width="100" height="100" fill="#70B9A9"/>
<rect x="400" y="700" width="100" height="100" fill="#91B499"/>
<rect x="500" y="700" width="100" height="100" fill="#BCAE84"/>
<rect x="600" y="700" width="100" height="100" fill="#CAAC7E"/>
<rect x="700" y="700" width="100" height="100" fill="#DDA974"/>
<rect x="800" y="700" width="100" height="100" fill="#F2A66A"/>
<rect x="900" y="700" width="100" height="100" fill="#FFA464"/>
<rect x="1000" y="700" width="100" height="100" fill="#FCA060"/>
<rect y="800" width="100" height="100" fill="#4FBDB9"/>
<rect x="100" y="800" width="100" height="100" fill="#61BBB0"/>
<rect x="200" y="800" width="100" height="100" fill="#70B9A9"/>
<rect x="300" y="800" width="100" height="100" fill="#91B499"/>
<rect x="400" y="800" width="100" height="100" fill="#BCAE84"/>
<rect x="500" y="800" width="100" height="100" fill="#CAAC7E"/>
<rect x="600" y="800" width="100" height="100" fill="#DDA974"/>
<rect x="700" y="800" width="100" height="100" fill="#F2A66A"/>
<rect x="800" y="800" width="100" height="100" fill="#FFA464"/>
<rect x="900" y="800" width="100" height="100" fill="#FCA060"/>
<rect x="1000" y="800" width="100" height="100" fill="#FF9D59"/>
<rect y="900" width="100" height="100" fill="#4FBDB9"/>
<rect x="100" y="900" width="100" height="100" fill="#61BBB0"/>
<rect x="200" y="900" width="100" height="100" fill="#70B9A9"/>
<rect x="300" y="900" width="100" height="100" fill="#91B499"/>
<rect x="400" y="900" width="100" height="100" fill="#BCAE84"/>
<rect x="500" y="900" width="100" height="100" fill="#CAAC7E"/>
<rect x="600" y="900" width="100" height="100" fill="#DDA974"/>
<rect x="700" y="900" width="100" height="100" fill="#F2A66A"/>
<rect x="800" y="900" width="100" height="100" fill="#FFA464"/>
<rect x="900" y="900" width="100" height="100" fill="#FCA060"/>
<rect x="1000" y="900" width="100" height="100" fill="#FF9D59"/>
</svg>
